<?xml version="1.0" encoding="UTF-8"?><svg id="a" xmlns="http://www.w3.org/2000/svg" xmlns:xlink="http://www.w3.org/1999/xlink" viewBox="0 0 420.52 420.52"><defs><style>.c{fill:url(#b);}</style><linearGradient id="b" x1="0" y1="210.26" x2="413.37" y2="210.26" gradientTransform="matrix(1, 0, 0, 1, 0, 0)" gradientUnits="userSpaceOnUse"><stop offset="0" stop-color="#bc13fe"/><stop offset=".25" stop-color="#7f42db"/><stop offset=".5" stop-color="#496ebd"/><stop offset=".72" stop-color="#218da6"/><stop offset=".89" stop-color="#08a099"/><stop offset="1" stop-color="#00a894"/></linearGradient></defs><path class="c" d="M210.26,0C94.14,0,0,94.14,0,210.26s94.14,210.26,210.26,210.26,210.26-94.14,210.26-210.26S326.38,0,210.26,0Zm109.7,239.41s-8.19,65.39-31.57,68.18c-35.29,4.22-59.87-21.03-84.79,48.99H99.68l8.15-15.96c10.7-20.95,31.89-35.9,54.27-38.29l30.37-3.25h-15.89c-61.25,0-102.15-49.66-91.35-110.91l18.94-107.44c1.64-9.28,10.48-16.8,19.76-16.8s15.47,7.52,13.83,16.8l-18.94,107.44c-7.53,42.7,20.98,77.32,63.68,77.32h29.79c9.28,0,18.12-7.52,19.76-16.8h0c1.64-9.28-4.56-16.8-13.83-16.8h-43.87c-9.28,0-15.47-7.52-13.83-16.79h0c1.64-9.28,10.48-16.8,19.76-16.8h80.58c9.28,0,18.12-7.52,19.76-16.8h0c1.64-9.28-4.56-16.8-13.83-16.8h-93.43c-9.65,0-15.96-8.13-13.6-17.91,2.15-8.93,11.15-15.68,20.1-15.68h56.14c9.65,0,18.83-8.13,19.92-17.91,1-8.93-5.62-15.68-14.57-15.68h-56.15c-9.64,0-15.96-8.14-13.6-17.92,2.15-8.93,11.15-15.68,20.1-15.68h15.06c9.53,0,20.34,.5,31.42,1.96,10.31,1.36,20.88,3.56,30.91,6.97,20.52,6.99,38.79,19.09,48.15,39.52,29.07,63.6-26.32,62.03,19.32,105.7,0,0,4.83,12.15-16.59,21.33Z"/></svg>