<svg id="Layer_1" data-name="Layer 1" xmlns="http://www.w3.org/2000/svg" viewBox="0 0 977.8 1462.43"><defs><style>.cls-1{fill:#b3674f;}.cls-2{fill:#d87e66;}.cls-3{fill:#26263a;}.cls-4{fill:#2d2d42;}.cls-5{fill:#ea997d;}.cls-6{fill:#23242b;}.cls-7{fill:#464560;}.cls-8{fill:#232338;}.cls-9{fill:#ce6565;}.cls-10{fill:#fff;}.cls-11{fill:#99503d;}.cls-12{fill:#e6e8ef;}.cls-13{fill:#c0c3ce;}.cls-14{fill:#c66d5c;}.cls-15{fill:#f4f4f4;}.cls-16{fill:#cacbce;}.cls-17{fill:#ced9ec;}</style></defs><path class="cls-1" d="M859.92,952.16c-10.57-68.29-37.16-103.42-50.57-232.63C791.9,551.3,680.8,572.73,680.8,572.73c-43.64,48.41-5.55,195.78-5.55,195.78L729,969.39C757.17,956.81,799.82,946.31,859.92,952.16Z"/><path class="cls-2" d="M729,963.35l18.13,58.52c51.48,43.65,120.76,4.77,120.76,4.77,1.8-30.2-6.77-57.93-10-78.57C797.86,942.23,757.17,950.77,729,963.35Z"/><path class="cls-2" d="M111.35,1064.83s73.29,56.64,133.6-6.85c0,0,3.46-18.58,10.31-41.46-45.12-19.81-97.13-23.37-128.15-23.8C122.65,1015.64,115.63,1034.88,111.35,1064.83Z"/><path class="cls-1" d="M293.55,631.45s-67.45,10.32-99.19,145.22C170,880.43,139.31,920.14,124.47,996.52c31,.43,86.48,4.3,131.6,24.1C275.15,957,308.88,860.35,331.64,797.3,362.59,711.6,293.55,631.45,293.55,631.45Z"/><path class="cls-3" d="M364.15,566.37s138.8,40.45,213.33-30.7l20-136.94-273.2,39.32Z"/><path class="cls-4" d="M509.41,183c-5.86-14.9-26.23-15.4-26.23-15.4-1-6.73-12-28.89-59.34-24.66-29.55,2.65-37.53,28.3-37.53,28.3C363.78,174.47,351,210.34,351,210.34c-27.41,23.38-4.38,44.72-4.38,44.72l184.9-33.48C543.87,189.76,509.41,183,509.41,183ZM351.76,249.17s-17.83-12.69,1.71-35.15C353.47,214,340.92,234.9,351.76,249.17Zm131.45-78.44s18.38.79,25.39,12.52C508.6,183.25,493.09,172.39,483.21,170.73Z"/><path class="cls-5" d="M415.09,502.23s15.4,81.88,13.81,96-19.34,12.41-63.37,21.11c0,0,95.81,265.76,181.05,251.69s61.53-261.49,72.3-282.93c0,0-73.85,11.19-79.41-16.33S527.61,486,527.61,486Z"/><path class="cls-2" d="M481.63,571.09c27-3.89,43.4-23.61,51.85-39.7-3.38-24.64-5.87-45.36-5.87-45.36l-112.52,16.2s3.91,20.49,7.72,43.93C434,559.57,453.88,575.09,481.63,571.09Z"/><path class="cls-5" d="M571.65,359.85c7.75,123.14-30.44,188.31-90,196.87-59.31,8.54-113.53-32.92-141.83-163.51-20.9-96.43,21.48-164,93.2-174.35S565.22,257.55,571.65,359.85Z"/><path class="cls-6" d="M403.68,412.22c.84,5.83-1.72,11-5.73,11.61s-7.92-3.69-8.75-9.52,1.72-11,5.71-11.6S402.84,406.4,403.68,412.22Z"/><path class="cls-6" d="M527.58,394.39c.84,5.83-1.72,11-5.72,11.61s-7.92-3.69-8.76-9.52,1.72-11,5.72-11.6S526.74,388.56,527.58,394.39Z"/><path class="cls-7" d="M370.93,394.05a4.37,4.37,0,0,1-5.53-5.76c3.84-9.44,14.21-30.15,42.51-23.37a4.57,4.57,0,0,1,3.8,4.87c-.31,2.39-2.5,3.37-4.88,3.79-19.95,3.51-33.25,17.79-33.33,18A4.4,4.4,0,0,1,370.93,394.05Z"/><path class="cls-7" d="M543.15,368.55a4.36,4.36,0,0,0,3.42-7.2c-6.63-7.75-23-24.09-47.73-8.7a4.58,4.58,0,0,0-2,5.83c1,2.17,3.45,2.43,5.83,2,22-3.47,37.17,6.33,37.32,6.49A4.32,4.32,0,0,0,543.15,368.55Z"/><path class="cls-2" d="M466.93,466.66c-6.1.68-11.17-.27-14.08-4.43-9.07-13,1.07-37.47,1.93-40.43.59-2.05,1.72-3.37,3.77-2.78s1.68,3.23,1.09,5.28c-2.78,9.69-2.91,26.88,1.79,32.75.78,1,2.07,2.09,5.06,1.92a3.9,3.9,0,0,1,4.07,3.62C470.93,466.28,467.05,466.65,466.93,466.66Z"/><path class="cls-7" d="M364.9,293S429.55,247.19,516,271.27c0,0,5.09-.76-37.81-2.67,0,0,34.29,17.38,49.45,24,0,0,25.79,35.86,39.13,76.89l5.9,59s17.7,107.31-41.82,135.5c0,0,19.43,3.08,46.26-17.91,0,0-1.61,7-3.06,9.45,0,0,39.76-5.72,48.69-34.51,0,0,27.27-1.67,28.87-37.52s-39-60.89-38.05-101.5-18.38-94.94-56.12-129.79c0,0-1.78-21.84-14.34-24.54s-28.8-18.4-36.81-11.38c0,0-13.61-20.14-48.76-13.73,0,0-41.22-17-80.13,16.61,0,0-27-1.87-33.42,25.44,0,0-17,10.11-15.7,19.39s-14.31,10.18-11.4,21c0,0-20.56,35.75-16.79,93.21s10.22,61.66-.93,93.84-6.87,77.56,16.68,87.7c0,0,5.53,16.45,33,16.05,0,0-11.44-6.3-16-14.77,0,0,52.5,38.9,106,16.19,0,0-74.55-31.69-79-116.25l-11.35-64.45s2.38-57.78,17.69-83c0,0,19.28-18.12,35.35-34.41C401.41,279.18,402.38,277.7,364.9,293Z"/><path class="cls-5" d="M555.15,379.09s3.37-18,26.58-19.25c22.43-1.25,23.11,56.75,4.95,68.93S558,413.6,558,413.6Z"/><path class="cls-5" d="M361.12,407s-8.29-16.28-30.92-11c-21.88,5.13-6.17,61,14.68,67.53s23.22-22.63,23.22-22.63Z"/><path class="cls-8" d="M356.44,295.3c-28,4-36.89-7.39-37.28-7.91a1.34,1.34,0,0,1,2.15-1.6c.1.12,9.66,12.11,40.39,5.88a1.34,1.34,0,1,1,.53,2.63C360.22,294.71,358.28,295,356.44,295.3Z"/><path class="cls-8" d="M530.85,272.09a75.66,75.66,0,0,1-14.94.52,1.34,1.34,0,0,1,.15-2.68c34.73,1.94,37.76-16.56,37.87-17.34a1.34,1.34,0,1,1,2.65.35C556.48,253.7,554.17,268.74,530.85,272.09Z"/><path class="cls-8" d="M479.71,263.64a1.34,1.34,0,0,1-.43-2.64C520,253.61,538,229.05,538.2,228.81a1.34,1.34,0,0,1,2.18,1.56c-.75,1-18.82,25.67-60.62,33.26Z"/><path class="cls-8" d="M475.29,261.12a1.34,1.34,0,0,1-.87-2.48c27.75-16.43,29.9-38.53,29.92-38.75a1.34,1.34,0,1,1,2.67.22c-.08,1-2.3,23.7-31.23,40.84A1.25,1.25,0,0,1,475.29,261.12Z"/><path class="cls-8" d="M388.14,278.17c-36,5.19-55.1-7.77-55.9-8.32a1.34,1.34,0,1,1,1.53-2.2c.19.13,19.28,13,54.74,7.76a1.3,1.3,0,0,1,1.53,1.13,1.35,1.35,0,0,1-1.13,1.52Z"/><path class="cls-8" d="M394,276a1.36,1.36,0,0,1-.35,0c-32.16-4-48.29-28-48.45-28.25a1.34,1.34,0,1,1,2.24-1.48c.15.23,15.65,23.22,46.54,27.07a1.34,1.34,0,0,1,0,2.65Z"/><path class="cls-8" d="M419.19,267.62a1.42,1.42,0,0,1-.7-.09c-30-12.29-38.62-43.14-38.7-43.45a1.35,1.35,0,0,1,.94-1.65,1.33,1.33,0,0,1,1.64.95c.08.29,8.41,29.89,37.13,41.67a1.33,1.33,0,0,1,.73,1.75A1.34,1.34,0,0,1,419.19,267.62Z"/><path class="cls-8" d="M450.77,263.07a1.35,1.35,0,0,1-.89-.18,1.34,1.34,0,0,1-.44-1.84c15.4-25.19,10.15-52.78,10.09-53.05a1.35,1.35,0,0,1,1.05-1.58,1.34,1.34,0,0,1,1.58,1.05c.06.29,5.53,28.87-10.44,55A1.3,1.3,0,0,1,450.77,263.07Z"/><path class="cls-8" d="M448.21,257.8a1.32,1.32,0,0,1-.59,0,1.35,1.35,0,0,1-.88-1.68c7.32-23.58-3.41-50.17-3.52-50.44a1.34,1.34,0,0,1,2.48-1c.46,1.12,11.2,27.76,3.6,52.24A1.34,1.34,0,0,1,448.21,257.8Z"/><path class="cls-8" d="M332.23,554.73a1.33,1.33,0,0,1-1.29-.56c-28.43-40.63-13.3-90.7-13.14-91.2a1.34,1.34,0,1,1,2.56.8c-.16.49-14.89,49.33,12.77,88.86a1.35,1.35,0,0,1-.9,2.1Z"/><path class="cls-8" d="M412.86,578.75a1.45,1.45,0,0,1-.3,0c-80.88-6.45-86.42-84.69-86.47-85.48a1.34,1.34,0,0,1,2.68-.16c0,.77,5.47,76.71,84,83a1.34,1.34,0,0,1,1.23,1.44A1.35,1.35,0,0,1,412.86,578.75Z"/><path class="cls-8" d="M582.25,540.84a1.3,1.3,0,0,1-.83-.15,1.33,1.33,0,0,1-.53-1.81c20.9-38.26,6.45-98.11,6.3-98.71a1.34,1.34,0,1,1,2.6-.65c.15.61,14.84,61.48-6.55,100.64A1.32,1.32,0,0,1,582.25,540.84Z"/><path class="cls-8" d="M623.35,516a1.36,1.36,0,0,1-.66-.07,1.34,1.34,0,0,1-.79-1.72C639.05,468.15,605,408,604.65,407.36A1.34,1.34,0,0,1,607,406c.35.62,35,61.9,17.43,109.11A1.33,1.33,0,0,1,623.35,516Z"/><ellipse class="cls-9" cx="472.8" cy="502.55" rx="13.15" ry="23.09" transform="matrix(0.98, -0.21, 0.21, 0.98, -94.25, 109.42)"/><path class="cls-10" d="M353.91,457.63a5,5,0,1,0-5,5A5,5,0,0,0,353.91,457.63Z"/><path class="cls-10" d="M585.75,421.48a5,5,0,1,0-5,5A5,5,0,0,0,585.75,421.48Z"/><path class="cls-1" d="M392,614s-45.23,6.35-98.4,17.46c0,0,23.81,136.49,30.95,178.55s-26.37,109.06,21.24,177.31c0,0,6.25,127.39-32.13,200.14,0,0,121.23,62.21,396.63,28.57,0,0-28.36-58.29-31.55-99.53-1.6-20.59-3.9-81.35,2.45-116.26,0,0,27.51-43.26,29.1-87.7S688.74,802.86,684,775.88s-4-129.35-3.17-203.15c0,0-42.85,3.17-82.53,16.66,0,0-32.87,107.26-82.07,221.53C516.2,810.92,454.64,747.31,392,614Z"/><path class="cls-11" d="M310.57,713.62a33.68,33.68,0,0,1-5.15,1.63c6.39,36.8,13.18,76,16.44,95.2,0,.15,0,.32.06.47a41.8,41.8,0,0,1,5.37-.24c-.06-.37-.09-.77-.15-1.13C323.86,790.23,317,750.64,310.57,713.62Z"/><path class="cls-11" d="M686.61,775.41C683.89,760,683,718.08,682.89,674c-1.78.35-3.57.72-5.35,1.1.12,47.81,1.09,85.91,3.8,101.26,1.32,7.52,4.06,18.79,7.23,31.84,5.26,21.66,11.72,48.29,15.59,73l5.41-.1c-3.9-25.14-10.46-52.19-15.8-74.16C690.63,794,687.91,782.76,686.61,775.41Z"/><path class="cls-11" d="M410,978.61s96.4-32.13,109.12-32.13,101.31,28.34,103.77,43.36c1.55,9.49-72.1-11.68-106.66-8.33S402.58,993.34,410,978.61Z"/><path class="cls-12" d="M312.27,1177.14s-69.62,156.36-97.74,285.29H780.89s-29-160.72-71-256c0,0-108.45,10-201.51,6.71S312.27,1177.14,312.27,1177.14Z"/><path class="cls-13" d="M569.4,1273.52c-171.56,0-275.35-32.22-276.66-32.64a2.68,2.68,0,0,1,1.62-5.1c1.66.52,168.14,52.16,428.67,24a2.68,2.68,0,0,1,.58,5.32A1434.89,1434.89,0,0,1,569.4,1273.52Z"/><path class="cls-13" d="M356.45,1259.75S333.25,1432,310,1433.81,356.45,1259.75,356.45,1259.75Z"/><path class="cls-13" d="M659.85,1276.71s69.72,158.89,44.72,176.74S659.85,1276.71,659.85,1276.71Z"/><path class="cls-13" d="M487.67,1457.29h-.13a2.67,2.67,0,0,1-2.55-2.8c3.53-73.83,7.9-234.25,7.95-235.86a2.72,2.72,0,0,1,2.75-2.6,2.67,2.67,0,0,1,2.6,2.75c0,1.61-4.42,162.08-8,236A2.68,2.68,0,0,1,487.67,1457.29Z"/><path class="cls-13" d="M545.69,1457.29h-.08a2.69,2.69,0,0,1-2.6-2.75c.88-32.35,0-229.38,0-231.37a2.68,2.68,0,0,1,2.67-2.69h0a2.68,2.68,0,0,1,2.68,2.67c0,2,.88,199.1,0,231.53A2.67,2.67,0,0,1,545.69,1457.29Z"/><circle class="cls-13" cx="520.7" cy="1246.58" r="15.39"/><path class="cls-2" d="M371.81,768.09s-3.3-21.22-2.74-24.2,4.81-31.23,5.25-40,17.91-5.63,18.94,11.62,2.13,49.27,2.13,49.27Z"/><path class="cls-5" d="M404.71,855.65S382.24,805.08,373,775.93a44.74,44.74,0,0,1-1.11-13.66c.86-8.07,5.13-31.54,7.37-36.64s17.91-32.08,21.42-35.59,14.92-19.94,21.62-17,6.86,11.66,6.86,11.66,12-11.26,20.57-8.39,2.87,16.6,2.87,16.6,8.3-8,15.32-4.47,2,17.78-1,26.07c-2.4,6.67-8.71,25.4-9.88,37.91-.73,7.81.34,39.08,4.58,39.3,1.8.09,11.39-33.51,11.39-33.51s7.47-34.2,18.27-31.06c9.24,2.69.85,35.15.85,35.15s-5.43,25.53-7.23,42.28c-.8,7.38-3.16,62.76-26.39,72.88C437.56,886.62,415.44,873,404.71,855.65Z"/><path class="cls-14" d="M476.19,751.23c3.36-11.49,9.07-24.43,14.71-22.77,5.82,1.69,3.05,21.46-.08,33.58,0,.06-.32,1.51-.79,3.84l2.28,2.21c.66-3.28,1.1-5.38,1.11-5.43.9-3.45,8.42-33.81-1.77-36.77a6.39,6.39,0,0,0-1.78-.26c-7.37,0-12.81,13.53-15.75,23.15C474.79,749.61,475.5,750.41,476.19,751.23Z"/><path class="cls-14" d="M427.78,684.75l.07,3,2.19-2c.09-.09,9.12-8.5,16.62-8.5a8.4,8.4,0,0,1,2.61.4,5,5,0,0,1,3.15,2.77c2,4.45-1.06,12-1.09,12l-2.48,5.94,4.64-4.46c.05,0,5.25-5,10.52-5a7.24,7.24,0,0,1,3.27.75c5.81,2.9,1.21,15.42-1.88,24a159.45,159.45,0,0,0-5.51,17.59c.75.75,1.47,1.54,2.18,2.35a178.79,178.79,0,0,1,5.85-19c2.73-7.6,9-23.12.56-27.33a10,10,0,0,0-4.47-1,17,17,0,0,0-8.9,3c.7-2.95,1.15-6.92-.25-10a7.68,7.68,0,0,0-4.74-4.2,11.14,11.14,0,0,0-3.46-.53c-6.36,0-13.24,4.88-16.52,7.54-.6-3.07-2.33-8-7.34-10.24h0a34.4,34.4,0,0,1,1.11,3.88C427.59,679,427.78,684.68,427.78,684.75Z"/><path class="cls-2" d="M401.82,772h-.19a1.33,1.33,0,0,1-1.22-1.45c.11-1.34,2.82-33.05,6.11-42.26s16-33.7,16.49-34.74a1.34,1.34,0,1,1,2.37,1.23c-.13.25-13.13,25.45-16.33,34.41s-5.95,41.26-6,41.59A1.32,1.32,0,0,1,401.82,772Z"/><path class="cls-2" d="M430.38,781.26a1.33,1.33,0,0,1-1.33-1.22c-.9-9.84,2.3-37.39,5-47.27,2.55-9.34,12.41-32.38,12.83-33.35a1.34,1.34,0,1,1,2.46,1.05c-.1.24-10.21,23.85-12.7,33-2.65,9.69-5.8,36.7-4.92,46.32a1.34,1.34,0,0,1-1.21,1.46Z"/><path class="cls-5" d="M458.51,877.48s-75.28,89.27-103.39,116.91c-11.73,11.53-56.95,66.21-126.76,112.73-34.31,22.87-95.67,28.24-112-4.47-17.85-35.7,1.49-71.75,32.58-98.18,46.53-39.56,102.14-64.43,140.59-85.25,51.1-27.67,111.38-72.31,111.38-72.31Z"/><path class="cls-5" d="M527.25,752.86s-41.07-22-44-67.84c0,0-2-4.77-7.94-16.27s-32.14-57.93-34.12-67.06-1.39-13.68,3.67-16.07,12.2,4.17,17,12.5S496,649.6,497.49,652.88c0,0-18.45-40.77-25.59-55.35s-13.09-30.36-13.09-30.36S454.94,555,463.57,552s13.09,7.14,13.09,7.14l47,76.18s-20.53-51-34.22-78.11c0,0-12.22-23.48-3.16-27.65s11.79.42,17.74,9.64c0,0-3.57-9.52,3.57-13.39s15.18,6.85,22,14,30.91,41.25,38.39,55.35c0,0,7.29-9.23,11.6-2.09,6.26,10.37,11.19,16.49,15.92,26.79,5.29,11.49,5.81,38,5.81,41.95,0,7.44-6.55,28-19.35,54.16S554.33,762.09,527.25,752.86Z"/><path class="cls-14" d="M527.88,751.68c-.4-.21-40.44-22.23-43.34-66.75l-.1-.43c-.08-.2-2.07-4.94-8-16.37-1.44-2.79-4.07-7.62-7.25-13.48-9.46-17.39-25.29-46.51-26.75-53.24-1.95-8.95-1.21-12.63,2.93-14.57a3.87,3.87,0,0,1,1.69-.37c3.89,0,9.33,4.95,13.54,12.32,2.48,4.34,11.34,17.65,19.91,30.53,7.4,11.11,15.05,22.61,15.74,24.11h0l2.44-1.1c-.18-.41-18.54-41-25.61-55.39s-13-30.08-13-30.17-3.39-11,3.92-13.51a8.41,8.41,0,0,1,2.68-.47c5.62,0,8.73,6.82,8.84,7.05l47,76.18,2.38-1.2c-.2-.51-20.71-51.4-34.28-78.23-2.33-4.49-7.94-17.42-5.91-23.33a3.94,3.94,0,0,1,2.13-2.48,12.94,12.94,0,0,1,5.25-1.43c4,0,6.43,3.79,10.47,10.06l7.09,11-4.38-11.66c0-.08-3.09-8.47,3-11.74a5.2,5.2,0,0,1,2.54-.66c4.64,0,10.06,5.92,14.85,11.14,1,1.12,2,2.23,3,3.25,6.91,7.22,30.89,41.34,38.17,55.06l1,1.8,1.27-1.6c.94-1.19,3.95-4.29,6.47-4.29,1.14,0,2.1.68,2.93,2.07,2.07,3.42,4,6.39,5.82,9.19,2.5,3.85,4.76,7.36,6.94,11.32.79-.42,1.59-.82,2.41-1.17-2.23-4.08-4.55-7.67-7.11-11.61-1.8-2.78-3.71-5.72-5.76-9.12-1.68-2.77-3.77-3.36-5.23-3.36-2.93,0-5.68,2.25-7.25,3.84-8.26-14.77-30.95-47-37.69-54-1-1-2-2.1-3-3.21-5.41-5.9-11-12-16.82-12a8,8,0,0,0-3.82,1,10,10,0,0,0-5.15,8.78c-4.27-6.06-8.2-8.69-16.08-5.07a6.64,6.64,0,0,0-3.55,4c-2.81,8.2,5.72,24.73,6.07,25.42,8.91,17.62,20.84,45.71,28,62.93L477.89,558.6c-.16-.35-3.83-8.49-11.21-8.49a11,11,0,0,0-3.55.62c-7.8,2.69-7.07,12.2-5.58,16.92.06.16,6.06,16,13.15,30.47,4.1,8.37,12,25.57,18,38.58-1.76-2.65-3.73-5.62-5.9-8.87-8.14-12.24-17.38-26.11-19.81-30.37-3.61-6.31-9.92-13.67-15.87-13.67a6.64,6.64,0,0,0-2.83.62C438,587.34,438,593.3,439.84,602c1.55,7.1,16.87,35.29,27,53.95,3.18,5.84,5.8,10.65,7.23,13.43,5.19,10,7.37,15,7.81,16,3.11,45.89,44.31,68.49,44.93,68.8,1.44.49,2.85.88,4.26,1.22-.19-1-.34-1.9-.46-2.85C529.71,752.25,528.8,752,527.88,751.68Z"/><path class="cls-2" d="M554.45,622.65a1.32,1.32,0,0,1-1.2-.75c-8.25-16.82-40.62-69.32-41-69.84a1.36,1.36,0,0,1,.44-1.85,1.34,1.34,0,0,1,1.84.44c.33.53,32.77,53.14,41.07,70.07a1.34,1.34,0,0,1-.61,1.79A1.25,1.25,0,0,1,554.45,622.65Z"/><path class="cls-2" d="M589,649.31a1.34,1.34,0,0,1-1.3-1c-3.94-16.63-19.38-49.62-19.54-49.95a1.34,1.34,0,0,1,2.43-1.14c.64,1.37,15.71,33.57,19.72,50.47a1.34,1.34,0,0,1-1,1.61A1.06,1.06,0,0,1,589,649.31Z"/><path class="cls-5" d="M529.11,753.45s61.19,95.44,89.77,134.31c18.31,24.9,123.85,224.27,222.22,177.76,87.28-41.27-57.55-166.22-91.67-194S585.15,709.38,585.15,709.38Z"/><path class="cls-14" d="M530.4,752.44l-3.07.71.65,1c.22.35,8.35,13,19.95,30.83.53-.8,1.09-1.58,1.68-2.33-9.27-14.25-16.22-25-18.53-28.63Z"/><path class="cls-15" d="M612.19,727.76s-35.38,1.26-69.85,49.09l17,27.26s25.35-44.44,71.14-51.67Z"/><path class="cls-16" d="M615.17,768.88l4.13-6.21c3.65-11.47-1.33-25.16-11.86-32.15-10-6.67-22.53-8.5-31.64-1.68l-6.72,9.4a27.67,27.67,0,1,0,46.09,30.64Z"/><circle class="cls-10" cx="595.97" cy="747.77" r="27.67" transform="matrix(1, -0.04, 0.04, 1, -27.75, 22.99)"/><circle class="cls-17" cx="595.97" cy="747.77" r="23.06" transform="translate(-222.99 254.17) rotate(-20.37)"/></svg>